<svg width="1200" height="800" viewBox="0 0 1200 800" xmlns="http://www.w3.org/2000/svg">
  <defs>
    <!-- Main gradient background -->
    <linearGradient id="heroGradient" x1="0%" y1="0%" x2="100%" y2="100%">
      <stop offset="0%" style="stop-color:#e8f5f0;stop-opacity:1" />
      <stop offset="30%" style="stop-color:#d1ebe0;stop-opacity:1" />
      <stop offset="70%" style="stop-color:#b8e0ce;stop-opacity:1" />
      <stop offset="100%" style="stop-color:#9cb3a5;stop-opacity:1" />
    </linearGradient>
    
    <!-- Accent gradient for shapes -->
    <linearGradient id="accentGradient" x1="0%" y1="0%" x2="100%" y2="100%">
      <stop offset="0%" style="stop-color:#10b981;stop-opacity:0.1" />
      <stop offset="100%" style="stop-color:#00a693;stop-opacity:0.15" />
    </linearGradient>
    
    <!-- Subtle pattern overlay -->
    <pattern id="subtlePattern" x="0" y="0" width="60" height="60" patternUnits="userSpaceOnUse">
      <circle cx="30" cy="30" r="1" fill="#10b981" fill-opacity="0.03"/>
      <circle cx="15" cy="15" r="0.5" fill="#00a693" fill-opacity="0.05"/>
      <circle cx="45" cy="45" r="0.5" fill="#00a693" fill-opacity="0.05"/>
    </pattern>
  </defs>
  
  <!-- Base gradient background -->
  <rect width="100%" height="100%" fill="url(#heroGradient)"/>
  
  <!-- Subtle pattern overlay -->
  <rect width="100%" height="100%" fill="url(#subtlePattern)"/>
  

  
  <!-- Flowing organic shapes -->
  <path d="M0,400 C200,350 400,450 600,400 C800,350 1000,450 1200,400 L1200,800 L0,800 Z" 
        fill="#10b981" fill-opacity="0.05"/>
  
  <path d="M0,500 C300,450 500,550 800,500 C1000,450 1100,550 1200,500 L1200,800 L0,800 Z" 
        fill="#00a693" fill-opacity="0.08"/>
  
  <!-- Medical/dental themed subtle elements -->
  <g opacity="0.06">
    <!-- Tooth-like shapes scattered around -->
    <path d="M100,300 Q110,290 120,300 Q130,310 120,320 Q110,330 100,320 Q90,310 100,300 Z" fill="#10b981"/>
    <path d="M800,150 Q810,140 820,150 Q830,160 820,170 Q810,180 800,170 Q790,160 800,150 Z" fill="#00a693"/>
    <path d="M300,600 Q310,590 320,600 Q330,610 320,620 Q310,630 300,620 Q290,610 300,600 Z" fill="#10b981"/>
  </g>
  
  <!-- Light rays from top corner -->
  <g opacity="0.03">
    <polygon points="0,0 200,0 0,200" fill="url(#accentGradient)"/>
    <polygon points="1200,0 1000,0 1200,200" fill="url(#accentGradient)"/>
  </g>
</svg>