<svg width="1400" height="600" viewBox="0 0 1400 600" xmlns="http://www.w3.org/2000/svg">
  <defs>
    <!-- Main gradient background that covers full width -->
    <linearGradient id="fullWidthGradient" x1="0%" y1="0%" x2="100%" y2="100%">
      <stop offset="0%" style="stop-color:#e0f2e8;stop-opacity:1" />
      <stop offset="25%" style="stop-color:#d4ede0;stop-opacity:1" />
      <stop offset="50%" style="stop-color:#c8e6d7;stop-opacity:1" />
      <stop offset="75%" style="stop-color:#bce0ce;stop-opacity:1" />
      <stop offset="100%" style="stop-color:#b0dac5;stop-opacity:1" />
    </linearGradient>
    
    <!-- Subtle overlay gradient -->
    <linearGradient id="overlayGradient" x1="0%" y1="50%" x2="100%" y2="50%">
      <stop offset="0%" style="stop-color:#10b981;stop-opacity:0.08" />
      <stop offset="30%" style="stop-color:#10b981;stop-opacity:0.05" />
      <stop offset="70%" style="stop-color:#148066;stop-opacity:0.06" />
      <stop offset="100%" style="stop-color:#10b981;stop-opacity:0.08" />
    </linearGradient>
    
    <!-- Very subtle pattern -->
    <pattern id="softPattern" x="0" y="0" width="80" height="80" patternUnits="userSpaceOnUse">
      <circle cx="40" cy="40" r="1" fill="#10b981" fill-opacity="0.02"/>
      <circle cx="20" cy="20" r="0.5" fill="#148066" fill-opacity="0.03"/>
      <circle cx="60" cy="60" r="0.5" fill="#148066" fill-opacity="0.03"/>
    </pattern>
  </defs>
  
  <!-- Full width base background -->
  <rect width="100%" height="100%" fill="url(#fullWidthGradient)"/>
  
  <!-- Subtle pattern overlay -->
  <rect width="100%" height="100%" fill="url(#softPattern)"/>
  
  <!-- Overlay gradient for depth -->
  <rect width="100%" height="100%" fill="url(#overlayGradient)"/>
  
  <!-- Organic flowing shapes that extend full width -->
  <path d="M0,200 C200,180 400,220 600,200 C800,180 1000,220 1200,200 C1300,190 1350,195 1400,200 L1400,600 L0,600 Z" 
        fill="#10b981" fill-opacity="0.04"/>
  
  <path d="M0,300 C150,280 350,320 550,300 C750,280 950,320 1150,300 C1250,290 1320,295 1400,300 L1400,600 L0,600 Z" 
        fill="#148066" fill-opacity="0.05"/>
  
  <path d="M0,400 C250,370 450,430 700,400 C950,370 1150,430 1400,400 L1400,600 L0,600 Z" 
        fill="#10b981" fill-opacity="0.03"/>
  
  <!-- Soft light rays from corners extending full width -->
  <polygon points="0,0 300,0 0,150" fill="#10b981" fill-opacity="0.02"/>
  <polygon points="1400,0 1100,0 1400,150" fill="#10b981" fill-opacity="0.02"/>
  
  <!-- Very subtle dental-themed scattered elements across full width -->
  <g opacity="0.03">
    <ellipse cx="150" cy="100" rx="8" ry="12" fill="#10b981"/>
    <ellipse cx="500" cy="150" rx="6" ry="10" fill="#148066"/>
    <ellipse cx="850" cy="120" rx="7" ry="11" fill="#10b981"/>
    <ellipse cx="1200" cy="180" rx="6" ry="9" fill="#148066"/>
  </g>
</svg>